<?xml version="1.0" encoding="UTF-8"?>
<svg width="19px" height="13px" viewBox="0 0 19 13" version="1.1" xmlns="http://www.w3.org/2000/svg" xmlns:xlink="http://www.w3.org/1999/xlink">
    <!-- Generator: Sketch 55.1 (78136) - https://sketchapp.com -->
    <title>Group 3</title>
    <desc>Created with Sketch.</desc>
    <defs>
        <polygon id="path-1" points="0 0 19 0 19 13 0 13"></polygon>
    </defs>
    <g id="Mobile-application" stroke="none" stroke-width="1" fill="none" fill-rule="evenodd">
        <g id="Plans" transform="translate(-45.000000, -487.000000)">
            <g id="Group-3" transform="translate(45.000000, 487.000000)">
                <mask id="mask-2" fill="white">
                    <use xlink:href="#path-1"></use>
                </mask>
                <g id="Clip-2"></g>
                <path d="M18.5442761,0.452393006 L18.5442761,0.452393006 C17.936689,-0.150797669 16.9424107,-0.150797669 16.3347788,0.452393006 L7.43954042,9.28266014 L2.66518759,4.54320328 C2.0575557,3.94005704 1.06327747,3.94005704 0.455690343,4.54320328 C-0.151896781,5.14634952 -0.151896781,6.13336053 0.455690343,6.7365512 L6.30735325,12.545444 C6.59816609,12.8341313 6.97751638,12.9842291 7.36062661,12.9966262 C7.79494353,13.0248862 8.23901837,12.8756326 8.56908669,12.5480212 L18.5442761,2.6456965 C19.151908,2.04255026 19.151908,1.05553925 18.5442761,0.452393006" id="Fill-1" fill="#fccc27" mask="url(#mask-2)"></path>
            </g>
        </g>
    </g>
</svg>