<?xml version="1.0" encoding="UTF-8"?>
<svg width="35px" height="37px" viewBox="0 0 35 37" version="1.1" xmlns="http://www.w3.org/2000/svg" xmlns:xlink="http://www.w3.org/1999/xlink">
    <!-- Generator: Sketch 55.2 (78181) - https://sketchapp.com -->
    <title>Notification</title>
    <desc>Created with Sketch.</desc>
    <defs>
        <polygon id="path-1" points="0 10 24 10 24 37 0 37"></polygon>
    </defs>
    <g id="Mobile-application" stroke="none" stroke-width="1" fill="none" fill-rule="evenodd">
        <g id="Home-Screen" transform="translate(-277.000000, -49.000000)">
            <g id="Navigation-bar" transform="translate(-1.000000, 0.000000)">
                <g id="Notification" transform="translate(278.000000, 49.000000)">
                    <mask id="mask-2" fill="white">
                        <use xlink:href="#path-1"></use>
                    </mask>
                    <g id="Clip-2"></g>
                    <path d="M2.32539524,31.7024903 C2.71924421,31.1561726 3.09932628,30.6343205 3.47368017,30.1085482 C4.03812322,29.3156863 4.59910048,28.5204628 5.16041469,27.7254755 C5.56360205,27.1543617 5.78319861,26.5227926 5.7847871,25.8259035 C5.78911934,23.9526863 5.79090037,22.0795163 5.78940816,20.206299 C5.78820476,18.7706743 6.2357254,17.4946422 7.23103403,16.4348795 C8.28391335,15.3138586 9.59407973,14.6961753 11.1598484,14.6712848 C11.9997258,14.6579657 12.8452351,14.5903313 13.6789993,14.7519076 C15.4412592,15.0934329 16.7378994,16.0564198 17.5886074,17.6026588 C18.0373314,18.418286 18.2008976,19.3041452 18.2062889,20.2183429 C18.2174083,22.0993532 18.2127391,23.9804579 18.2130279,25.8615627 C18.2131242,26.5533037 18.4366198,27.1770324 18.8328274,27.7378027 C19.7184822,28.9914474 20.6164116,30.2367796 21.5091905,31.4855596 C21.5543902,31.5488015 21.5980496,31.6129881 21.6603376,31.7024903 L2.32539524,31.7024903 Z M11.925837,35.1646431 C10.9501679,35.1327151 10.0321657,34.4449887 9.80039075,33.5654112 C9.83134221,33.5614438 9.86113841,33.5543592 9.89093461,33.554312 C11.3260621,33.5537924 12.7612378,33.5538386 14.2158604,33.5538386 C13.8814594,34.5573034 12.9575365,35.1984603 11.925837,35.1646431 L11.925837,35.1646431 Z M11.9112999,11.8337581 C12.7119946,11.8029164 13.419883,12.2231753 13.7314194,12.9329584 C12.5772137,12.6983163 11.4343682,12.7024726 10.2857944,12.9310692 C10.5008181,12.3197149 11.1875748,11.8617187 11.9112999,11.8337581 L11.9112999,11.8337581 Z M23.6718459,31.3066024 C22.5820944,29.7900243 21.505821,28.2641417 20.4185244,26.7459105 C20.2025862,26.4443424 20.0979866,26.1219456 20.1004415,25.753735 C20.1070843,24.7542859 20.1027039,23.7547424 20.1027039,22.7551988 C20.1027039,21.8422292 20.099912,20.9292595 20.1034741,20.0163371 C20.1072287,19.0587817 19.8975001,18.1418919 19.5325327,17.2615114 C18.8446207,15.6020604 17.656046,14.4131217 15.9760986,13.7060307 C15.8195602,13.6400966 15.7651184,13.5517752 15.764974,13.3920409 C15.7647333,13.13964 15.707644,12.8949849 15.6282677,12.6536832 C15.0187693,10.8012003 13.2872201,9.75140328 11.3287096,10.0505154 C9.74359023,10.2926672 8.38952379,11.7193181 8.24280518,13.3045697 C8.22624639,13.4833379 8.216908,13.6265414 8.00015147,13.7274262 C5.28898602,14.9892419 4.00587208,17.1724343 3.90911867,20.0458091 C3.84533843,21.9405163 3.89395582,23.8389547 3.90016537,25.7356456 C3.9014169,26.1205287 3.79883903,26.4583227 3.5696634,26.7717457 C3.10250326,27.4104939 2.64781035,28.0580269 2.18859265,28.7023483 C1.55488186,29.5916081 0.919678843,30.4797816 0.289096889,31.3711196 C-0.0802989827,31.8932079 -0.0980611767,32.4290403 0.249432803,32.9337949 C0.557984736,33.3819671 1.01190747,33.5552094 1.55175301,33.5545481 C3.52494504,33.5520449 5.49813706,33.5536035 7.47132908,33.5536508 C7.84390193,33.5536508 7.84390193,33.5536508 7.9394038,33.9085423 C8.43515675,35.7502094 10.1524576,37.0338457 12.0742885,36.9993201 C14.0039174,36.9647472 15.6708199,35.6294877 16.0930692,33.7710537 C16.1307597,33.6051795 16.1897744,33.5483137 16.3712473,33.5489749 C18.4085565,33.5563429 20.4459138,33.5544537 22.4833193,33.5529895 C23.0841532,33.5525644 23.5612775,33.3223147 23.8435471,32.7868129 C24.1199442,32.2625993 24.0099053,31.7771148 23.6718459,31.3066024 L23.6718459,31.3066024 Z" id="Fill-1" fill="#979797" mask="url(#mask-2)"></path>
                    <circle id="Oval" fill="#ED2A5F" cx="23.5" cy="11.5" r="11.5"></circle>
                    <text id="3" font-family="Helvetica" font-size="16" font-weight="normal" fill="#FFFFFF">
                        <tspan x="19.0507812" y="16">3</tspan>
                    </text>
                </g>
            </g>
        </g>
    </g>
</svg>