<?xml version="1.0" encoding="UTF-8"?>
<svg width="85px" height="72px" viewBox="0 0 85 72" version="1.1" xmlns="http://www.w3.org/2000/svg" xmlns:xlink="http://www.w3.org/1999/xlink">
    <!-- Generator: Sketch 55 (78076) - https://sketchapp.com -->
    <title>Group 22</title>
    <desc>Created with Sketch.</desc>
    <defs>
        <polygon id="path-1" points="0.219765508 0.177373489 75.9538084 0.177373489 75.9538084 71.3332525 0.219765508 71.3332525"></polygon>
    </defs>
    <g id="Page-1" stroke="none" stroke-width="1" fill="none" fill-rule="evenodd">
        <g id="Homepage" transform="translate(-89.000000, -3718.000000)">
            <g id="Group-22" transform="translate(89.000000, 3718.000000)">
                <g id="Group-3" transform="translate(9.000000, 0.000000)">
                    <mask id="mask-2" fill="white">
                        <use xlink:href="#path-1"></use>
                    </mask>
                    <g id="Clip-2"></g>
                    <path d="M23.0842263,7.36355996 L1.42559162,53.5034641 C-2.6643006,62.2161585 4.19663353,72.0957112 13.774909,71.286659 L64.499903,67.0030126 C74.078406,66.1944162 79.1906575,55.3036622 73.7020467,47.3997921 L44.6354599,5.5435344 C39.1470766,-2.36010777 27.1741186,-1.3489065 23.0842263,7.36355996" id="Fill-1" fill="#EF2E62" mask="url(#mask-2)"></path>
                </g>
                <path d="M52.6096745,8.25351572 L73.7737581,53.0031157 C77.9329141,61.7973532 70.9557611,71.7694547 61.2149733,70.9529884 L11.6480354,66.7986029 C1.90724755,65.9821367 -3.29158423,54.989565 2.29004755,47.0117937 L30.6929019,6.41657928 C36.2745337,-1.56119198 48.4505185,-0.540721774 52.6096745,8.25351572" id="Fill-4" fill="#2DEC3E"></path>
                <path d="M31.6999145,6.30281647 L6.68943342,50.0913798 C1.88927372,58.4951351 7.88947335,69 17.4893422,69 L67.5105296,69 C77.1106238,69 83.1105981,58.4951351 78.3106637,50.0913798 L53.2999573,6.30281647 C48.5000229,-2.10093882 36.4998489,-2.10093882 31.6999145,6.30281647" id="Fill-6" fill="#F1F2F2"></path>
                <path d="M23.9839594,49.3845739 C23.9839594,49.5997596 23.9032773,49.8103863 23.7416738,50.0153142 C23.5692967,50.2307278 23.3483188,50.3385486 23.079219,50.3385486 C22.8958289,50.3385486 22.7126782,50.2920466 22.529767,50.1999544 C22.0018621,49.9640252 21.4308629,49.8459466 20.8170089,49.8459466 C20.0628591,49.8459466 19.4056714,49.997306 18.8456853,50.3000249 C18.2854597,50.6025157 17.8545169,51.0283281 17.5530964,51.576778 C17.2511971,52.1254559 17.1006065,52.7536887 17.1006065,53.4614763 C17.1006065,54.6716678 17.4424878,55.5898541 18.1267291,56.2153515 C18.8104916,56.8410768 19.7073313,57.1538254 20.8170089,57.1538254 C21.4739572,57.1538254 22.0449564,57.0357469 22.529767,56.7998176 C22.7236912,56.7179833 22.8958289,56.6769521 23.0466589,56.6769521 C23.3267717,56.6769521 23.5637902,56.7897878 23.7577144,57.0154592 C23.9193179,57.2103573 24,57.420528 24,57.6461994 C24,57.8103241 23.9569057,57.9591761 23.8707172,58.0922994 C23.7845286,58.2256507 23.6607523,58.3282286 23.4991488,58.4000332 C22.6590498,58.7998591 21.7646042,59 20.8170089,59 C19.7611992,59 18.791578,58.7873218 17.9086242,58.3615094 C17.0251915,57.936153 16.3194031,57.3076923 15.7917376,56.4768112 C15.2638327,55.646158 15,54.6411223 15,53.4614763 C15,52.4154095 15.2504256,51.4769355 15.7512769,50.6460544 C16.2523675,49.8154012 16.9442701,49.1666529 17.8277027,48.7000373 C18.7108959,48.2334218 19.7073313,48 20.8170089,48 C21.7756172,48 22.6643169,48.2001409 23.4831081,48.5999668 C23.8168493,48.7640915 23.9839594,49.0255512 23.9839594,49.3845739" id="Fill-8" fill="#1D1D1B"></path>
                <path d="M27.708323,58.7396684 C27.5137071,58.9132228 27.272166,59 26.9832057,59 C26.7053593,59 26.4719684,58.9132228 26.2830328,58.7396684 C26.0940973,58.5665545 26,58.350933 26,58.0930242 L26,48.9067556 C26,48.6492872 26.097061,48.4336657 26.29143,48.2603316 C26.485799,48.0869974 26.7275871,48 27.0165473,48 C27.2941467,48 27.5275377,48.0869974 27.7167202,48.2603316 C27.9054087,48.4336657 28,48.6492872 28,48.9067556 L28,58.0930242 C28,58.350933 27.902692,58.5665545 27.708323,58.7396684" id="Fill-10" fill="#1D1D1B"></path>
                <path d="M35.7396816,50.288965 C35.9133029,50.4817715 36,50.7213115 36,51.007585 L36,55.2018596 C36,56.3907512 35.6961061,57.3212625 35.0885452,57.9926597 C34.4809843,58.6640568 33.6156016,59 32.492397,59 C31.3689654,59 30.5060792,58.6640568 29.9037383,57.9926597 C29.3009435,57.3212625 29,56.3907512 29,55.2018596 L29,51.007585 C29,50.7213115 29.0866971,50.4817715 29.2603184,50.288965 C29.4339396,50.0966479 29.653406,50 29.9191713,50 C30.1844827,50 30.403949,50.0966479 30.5775703,50.288965 C30.7511915,50.4817715 30.8381156,50.7213115 30.8381156,51.007585 L30.8381156,55.2018596 C30.8381156,55.8732567 30.9758778,56.3716663 31.2516292,56.6963543 C31.5273806,57.021287 31.9408942,57.1835087 32.492397,57.1835087 C33.0538858,57.1835087 33.4726194,57.021287 33.7483708,56.6963543 C34.0241222,56.3716663 34.1618844,55.8732567 34.1618844,55.2018596 L34.1618844,51.007585 C34.1618844,50.7213115 34.2485815,50.4817715 34.4224297,50.288965 C34.595824,50.0966479 34.8152903,50 35.0810557,50 C35.3463671,50 35.5658334,50.0966479 35.7396816,50.288965" id="Fill-12" fill="#1D1D1B"></path>
                <path d="M39.8823393,53.5514176 L43.992156,53.5514176 L43.992156,53.4377703 C43.9500886,52.983902 43.7358008,52.594666 43.3490602,52.2703027 C42.9618547,51.9459395 42.5228204,51.7839981 42.0314924,51.7839981 C40.8180471,51.7839981 40.1019726,52.3731379 39.8823393,53.5514176 M45.7018099,54.9296012 C45.5135528,55.0920231 45.2941518,55.1729938 45.0431423,55.1729938 L39.8667674,55.1729938 C39.9922722,55.8109082 40.2795387,56.3106679 40.7294965,56.6729938 C41.1789896,57.0353196 41.6863543,57.2162422 42.2508933,57.2162422 C42.6797013,57.2162422 43.0141483,57.1756367 43.2549316,57.0944258 C43.49525,57.0134551 43.6862962,56.9271985 43.8273728,56.8351754 C43.9686819,56.7433926 44.0651347,56.6809226 44.1176607,56.6487266 C44.3059179,56.5514176 44.4834839,56.502643 44.651056,56.502643 C44.870457,56.502643 45.0587142,56.5838539 45.2155951,56.7457953 C45.3724761,56.9082172 45.4508004,57.097309 45.4508004,57.3135512 C45.4508004,57.6054781 45.3043781,57.870495 45.0117661,58.1081211 C44.7189216,58.3567996 44.3266029,58.5677559 43.835275,58.7407496 C43.3437146,58.9132629 42.8470411,59 42.3450219,59 C41.4667209,59 40.7004445,58.8111485 40.0471224,58.4322441 C39.3933355,58.0540605 38.8887598,57.5321961 38.5333953,56.8676117 C38.1777984,56.2027871 38,55.4543489 38,54.6215762 C38,53.691975 38.1882572,52.8757809 38.5647715,52.173234 C38.9412858,51.4704469 39.437727,50.9324844 40.0550245,50.5595867 C40.6718573,50.1866891 41.330525,50 42.0314924,50 C42.7215363,50 43.3725342,50.194618 43.9842538,50.5836136 C44.5959734,50.9733301 45.0847448,51.497357 45.4508004,52.1566555 C45.816856,52.8161941 46,53.5297934 46,54.2972129 C45.9893089,54.5569438 45.8900671,54.7676598 45.7018099,54.9296012" id="Fill-14" fill="#1D1D1B"></path>
                <path d="M52.6136892,56.6899522 C53.0316165,56.2255522 53.2408068,55.6414121 53.2408068,54.9375321 C53.2408068,54.2332174 53.0316165,53.6466869 52.6136892,53.1772887 C52.1955352,52.7078905 51.6549946,52.4734087 50.9922942,52.4734087 C50.339566,52.4734087 49.8042382,52.7078905 49.3860842,53.1772887 C48.9679302,53.6466869 48.7589665,54.2332174 48.7589665,54.9375321 C48.7589665,55.6414121 48.9654371,56.2255522 49.378605,56.6899522 C49.7915463,57.1545695 50.3293671,57.3866609 50.9922942,57.3866609 C51.6549946,57.3866609 52.1955352,57.1545695 52.6136892,56.6899522 M54.7398153,48.2492592 C54.9131962,48.4157217 55,48.6306452 55,48.8946817 L55,57.9586313 C55,58.213106 54.9131962,58.4256391 54.7398153,58.5964479 C54.5664344,58.7679086 54.3470452,58.8533131 54.082101,58.8533131 C53.8169301,58.8533131 53.6002606,58.7702991 53.4320925,58.6040539 C53.2636977,58.4378087 53.1744008,58.227666 53.1644286,57.9734087 C52.9094566,58.2570034 52.5651878,58.4988739 52.1318488,58.6992374 C51.6982832,58.8996009 51.2420534,59 50.7627061,59 C50.0592102,59 49.4218936,58.8265834 48.8507564,58.4793157 C48.2796192,58.1324825 47.8283755,57.6506974 47.4970253,57.0346122 C47.1654485,56.4187443 47,55.7196452 47,54.9375321 C47,54.1552017 47.1629554,53.4534948 47.4895461,52.8326287 C47.8156836,52.2117626 48.2619412,51.7278043 48.8278656,51.3805366 C49.39379,51.0337034 50.0184146,50.8598522 50.7015128,50.8598522 C51.191059,50.8598522 51.6500085,50.9454739 52.0783614,51.1167174 C52.5064876,51.2877435 52.8684345,51.5054921 53.1644286,51.7693113 L53.1644286,48.8946817 C53.1644286,48.6404244 53.2510057,48.4276739 53.4243867,48.2566478 C53.5977676,48.0856217 53.8169301,48 54.082101,48 C54.3470452,48 54.5664344,48.0832313 54.7398153,48.2492592" id="Fill-16" fill="#1D1D1B"></path>
                <path d="M60.777957,56.4693063 C60.8877048,56.6076728 60.9426849,56.789806 60.9426849,57.0154779 C60.9426849,57.2922109 60.8017322,57.5258611 60.5200391,57.7155167 C60.2383459,57.9051722 59.9205655,58 59.5673346,58 C58.9750785,58 58.4760126,57.864141 58.0701367,57.5921949 C57.6642608,57.3204769 57.4613229,56.7435319 57.4613229,55.8615879 L57.4613229,51.6153092 L56.8021992,51.6153092 C56.5729388,51.6153092 56.3818884,51.5334747 56.2292604,51.3693497 C56.0764201,51.2052246 56,50.9998404 56,50.7538809 C56,50.5181791 56.0764201,50.3205453 56.2292604,50.1614352 C56.3818884,50.0025531 56.5729388,49.922998 56.8021992,49.922998 L57.4613229,49.922998 L57.4613229,48.9384759 C57.4613229,48.6717728 57.5447482,48.4486084 57.7120234,48.2692106 C57.8790864,48.0898129 58.0866944,48 58.3352721,48 C58.5738728,48 58.7744757,48.0898129 58.9370808,48.2692106 C59.0992613,48.4486084 59.1805638,48.6717728 59.1805638,48.9384759 L59.1805638,49.922998 L60.1978008,49.922998 C60.4270612,49.922998 60.6178993,50.0052885 60.7707396,50.1689576 C60.9235799,50.3333105 61,50.5384668 61,50.7846543 C61,51.020812 60.9235799,51.2179899 60.7707396,51.3768721 C60.6178993,51.5357542 60.4270612,51.6153092 60.1978008,51.6153092 L59.1805638,51.6153092 L59.1805638,55.7845403 C59.1805638,55.9999544 59.2329965,56.1563291 59.3380742,56.2538923 C59.4431519,56.3512275 59.5864397,56.3997812 59.7679375,56.3997812 C59.8443576,56.3997812 59.9492231,56.3792655 60.0831706,56.3384622 C60.1978008,56.2871732 60.3073363,56.2614147 60.4126263,56.2614147 C60.5463616,56.2614147 60.6679969,56.3309398 60.777957,56.4693063" id="Fill-18" fill="#1D1D1B"></path>
                <path d="M69.7449823,50.2769039 C69.914758,50.4505598 70,50.6660124 70,50.9235107 C70,51.0578576 69.9572609,51.2255425 69.8724911,51.4270629 L66.8923259,58.3451831 C66.8179457,58.5355079 66.7090909,58.6867726 66.5657615,58.7984796 C66.422196,58.9104354 66.2602125,58.9718867 66.079575,58.9830822 L65.9362456,59 C65.7553719,59 65.5881936,58.9410366 65.4342385,58.8238563 C65.2800472,58.7061783 65.1605667,58.5464547 65.0755608,58.3451831 L62.1114522,51.4270629 C62.0368359,51.2481824 62,51.0690532 62,50.8896752 C62,50.6660124 62.0899646,50.4615066 62.2708383,50.2769039 C62.4512397,50.0923013 62.6743802,50 62.9402597,50 C63.1419126,50 63.327745,50.0559779 63.4977568,50.1679337 C63.6677686,50.2798894 63.7952774,50.4363787 63.8805195,50.6378991 L66.079575,55.9438563 L68.263046,50.6548169 C68.3478158,50.4421009 68.4646989,50.2798894 68.6134593,50.1679337 C68.7622196,50.0559779 68.9268005,50.0057222 69.107438,50.016669 C69.3624557,50.016669 69.5749705,50.1034969 69.7449823,50.2769039" id="Fill-20" fill="#1D1D1B"></path>
            </g>
        </g>
    </g>
</svg>