<?xml version="1.0" encoding="UTF-8"?>
<svg width="194px" height="163px" viewBox="0 0 194 163" version="1.1" xmlns="http://www.w3.org/2000/svg" xmlns:xlink="http://www.w3.org/1999/xlink">
    <!-- Generator: Sketch 55.1 (78136) - https://sketchapp.com -->
    <title>Group 10</title>
    <desc>Created with Sketch.</desc>
    <defs>
        <polygon id="path-1" points="0.503196443 0.40515655 173.894246 0.40515655 173.894246 163 0.503196443 163"></polygon>
    </defs>
    <g id="Mobile-application" stroke="none" stroke-width="1" fill="none" fill-rule="evenodd">
        <g id="Payment---success" transform="translate(-110.000000, -87.000000)">
            <g id="Group-10" transform="translate(110.000000, 87.000000)">
                <g id="Group-3" transform="translate(20.000000, 0.000000)">
                    <mask id="mask-2" fill="white">
                        <use xlink:href="#path-1"></use>
                    </mask>
                    <g id="Clip-2"></g>
                    <path d="M52.8505725,16.8259224 L3.2636982,122.257759 C-6.09948144,142.166673 9.60792575,164.741913 31.5376563,162.893712 L147.671195,153.105379 C169.600405,151.257178 181.30477,126.371296 168.73874,108.310584 L102.192075,12.6670789 C89.6260455,-5.39311278 62.2142731,-3.08247061 52.8505725,16.8259224" id="Fill-1" fill="#EF2E62" mask="url(#mask-2)"></path>
                </g>
                <path d="M120.651335,18.6830327 L169.188078,121.607301 C178.725875,141.833464 162.724962,164.769742 140.386123,162.891876 L26.7127868,153.336302 C4.37394767,151.458436 -7.54868826,126.175602 5.25183434,107.826787 L70.388947,14.4580924 C83.1894696,-3.89072268 111.113538,-1.54364873 120.651335,18.6830327" id="Fill-4" fill="#2DEC3E"></path>
                <path d="M71.9438828,14.4328916 L13.9194907,114.701586 C2.78310558,133.945441 16.703587,158 38.9753119,158 L155.024619,158 C177.296866,158 191.216825,133.945441 180.08044,114.701586 L122.056048,14.4328916 C110.920185,-4.81096387 83.0797452,-4.81096387 71.9438828,14.4328916" id="Fill-6" fill="#1D1D1B"></path>
                <path d="M120.899279,59.9372405 C120.899279,61.3273858 120.396721,62.6848888 119.391607,64.0081952 C118.318295,65.3988587 116.943869,66.0936722 115.269902,66.0936722 C114.129443,66.0936722 112.990033,65.7957469 111.851148,65.2004145 C108.566164,63.6781458 105.014689,62.9159752 101.194098,62.9159752 C96.5016393,62.9159752 92.4129836,63.8936883 88.9286557,65.8454875 C85.4427541,67.7988411 82.7610492,70.5470076 80.8856393,74.0879144 C79.0086557,77.6298575 78.0701639,81.684232 78.0701639,86.2520743 C78.0701639,94.0639344 80.197377,99.9892798 84.4544262,104.026556 C88.7099016,108.065387 94.2899672,110.084025 101.194098,110.084025 C105.281705,110.084025 108.835279,109.323409 111.851148,107.799585 C113.057705,107.270574 114.129443,107.005291 115.068459,107.005291 C116.810623,107.005291 118.28577,107.734819 119.491803,109.190249 C120.497443,110.448271 121,111.805774 121,113.261204 C121,114.3213 120.731934,115.281396 120.195279,116.140975 C119.658623,117.002109 118.889049,117.664798 117.88341,118.126971 C112.655344,120.708818 107.091541,122 101.194098,122 C94.6241311,122 88.5923934,120.626953 83.0973115,117.878787 C77.6006557,115.132693 73.2098361,111.076764 69.9269508,105.714627 C66.6419672,100.35249 65,93.8649722 65,86.2520743 C65,79.4992739 66.5585574,73.4418051 69.6751475,68.0796681 C72.7922623,62.7175311 77.0975738,58.5315513 82.5942295,55.5186199 C88.0898361,52.5067248 94.2899672,51 101.194098,51 C107.158689,51 112.688393,52.2911823 117.783213,54.8730287 C119.860066,55.9326065 120.899279,57.6206771 120.899279,59.9372405" id="Fill-8" fill="#F1F2F2"></path>
            </g>
        </g>
    </g>
</svg>