<svg xmlns="http://www.w3.org/2000/svg" width="237.718" height="57.44" viewBox="0 0 237.718 57.44"><g transform="translate(0 0.07)"><path d="M1151.964,480.067c6.231.719,14.863,2.262,15.848,4.636q2.113,5.1,2.113,17.866t-2.1,17.97c-.967,2.349-9.486,4.2-15.87,5.142C1151.964,517.68,1151.964,489.531,1151.964,480.067Zm-7.408,51.261c7.844,0,30.21-2.323,33.579-6.972s5.055-11.883,5.055-21.722-1.682-17.081-5.055-21.722-24.986-6.972-33.6-6.972c.017,1.194.044,58.508.044,57.4Z" transform="translate(-945.471 -474.01)" fill="#fccc27"/><path d="M1070.029,474.48c-8.623,0-31.182,2.118-34.551,6.758s-5.059,11.883-5.059,21.722,1.686,17.081,5.059,21.722,25.574,6.946,33.5,6.972l1.046.031s-2.641-5.05-2.449-5.042c-4.6-.24-20.415-2.536-21.753-5.791-1.307-3.133-1.983-8.475-2.1-15.818.736,0,15.487.436,15.487.436v-6.362s-14.319,1.059-15.439,1.046c.214-4.793.763-12.031,2.052-15.142,1.412-3.4,18.55-5.1,21.787-5.1Z" transform="translate(-881.085 -474.315)" fill="#fccc27"/><path d="M727.32,474.48c-8.628,0-31.182,2.118-34.555,6.758s-5.055,11.883-5.055,21.722,1.682,17.081,5.055,21.722,25.574,6.946,33.5,6.972l1.05.031s-2.641-5.05-2.449-5.042c-4.6-.24-20.005-2.745-21.753-5.791-3.512-6.1-3.011-27.452,0-35.823,1.246-3.486,18.545-5.1,21.787-5.1Z" transform="translate(-687.71 -474.315)" fill="#fccc27"/><path d="M814.354,478.72c0,8.741-1.678,36.2,1.835,42.315,1.743,3.05,17.155,5.551,21.757,5.791-.2,0,2.462,5.037,2.449,5.042l-1.05-.03c-7.931,0-30.149-2.34-33.5-6.972s-5.059-11.883-5.059-21.722.052-28.324.052-28.324S814.354,478.611,814.354,478.72Z" transform="translate(-751.51 -474.507)" fill="#fccc27"/><path d="M943.032,525.982c-2.776,3.1-9.412,5.486-15.735,5.486-8.205,0-16.763-3.05-18.737-5.787q-5.055-6.972-5.05-21.787c0-9.874.052-29.4.052-29.4s13.508,3.774,13.508,3.883c0,8.767-1.673,37.326,1.835,43.457.959,1.673,5.778,4.249,11.116,4.249,3.029,0,6.654-2.07,7.687-3.922,3.416-6.161,1.835-34.55,1.835-43.283,0-.109,8.5-3.865,8.5-3.865s.048,19.456.048,29.287S945.808,522.88,943.032,525.982Z" transform="translate(-809.476 -474.32)" fill="#fccc27" fill-rule="evenodd"/></g></svg>