<?xml version="1.0" encoding="UTF-8"?>
<svg width="75px" height="63px" viewBox="0 0 75 63" version="1.1" xmlns="http://www.w3.org/2000/svg" xmlns:xlink="http://www.w3.org/1999/xlink">
    <!-- Generator: Sketch 55 (78076) - https://sketchapp.com -->
    <title>Logo</title>
    <desc>Created with Sketch.</desc>
    <defs>
        <polygon id="path-1" points="0.19377961 0.155914021 66.9592784 0.155914021 66.9592784 62.722467 0.19377961 62.722467"></polygon>
    </defs>
    <g id="Page-1" stroke="none" stroke-width="1" fill="none" fill-rule="evenodd">
        <g id="Homepage" transform="translate(-71.000000, -10.000000)">
            <g id="Navigation-bar">
                <g id="Logo" transform="translate(71.000000, 10.000000)">
                    <g id="Group-3" transform="translate(8.000000, 0.000000)">
                        <mask id="mask-2" fill="white">
                            <use xlink:href="#path-1"></use>
                        </mask>
                        <g id="Clip-2"></g>
                        <path d="M20.3505278,6.4746018 L1.25673144,47.044816 C-2.34863084,54.7057742 3.69962365,63.3927357 12.1438302,62.6815471 L56.8619171,58.9149928 C65.3059231,58.2038042 69.8127763,48.6277066 64.9741326,41.6781375 L39.3498422,4.87447752 C34.5111985,-2.07529205 23.9560907,-1.18615599 20.3505278,6.4746018" id="Fill-1" fill="#EF2E62" mask="url(#mask-2)"></path>
                    </g>
                    <path d="M46.9979038,6.42452183 L65.9046584,46.0599537 C69.6199631,53.8491105 63.3870493,62.6815148 54.6852922,61.9583613 L10.4055623,58.2785751 C1.7038052,57.5554216 -2.9404774,47.8191752 2.04577268,40.7531719 L27.4189503,4.79752622 C32.4052004,-2.26847703 43.2825991,-1.3646349 46.9979038,6.42452183" id="Fill-4" fill="#2DEC3E"></path>
                    <path d="M27.8519816,5.57219233 L5.50925591,44.2835237 C1.22110763,51.7129121 6.58109174,61 15.1571871,61 L59.8428397,61 C68.4187338,61 73.7789191,51.7129121 69.4907708,44.2835237 L47.1480451,5.57219233 C42.8600981,-1.85739744 32.1399286,-1.85739744 27.8519816,5.57219233" id="Fill-6" fill="#F1F2F2"></path>
                    <path d="M45.9622295,23.3986937 C45.9622295,23.9273444 45.7737705,24.4435817 45.3968525,24.9468146 C44.9943607,25.4754652 44.4789508,25.7398891 43.8512131,25.7398891 C43.4233443,25.7398891 42.9962623,25.6265927 42.5691803,25.4 C41.3373115,24.8213019 40.0055082,24.5314603 38.5727869,24.5314603 C36.8131148,24.5314603 35.2798689,24.9032694 33.9732459,25.6453112 C32.6660328,26.3883383 31.6603934,27.4334233 30.9571148,28.7799752 C30.2532459,30.1267241 29.9013115,31.6685397 29.9013115,33.4056192 C29.9013115,36.3763482 30.6990164,38.6298621 32.2954098,40.1651755 C33.8912131,41.7010801 35.9837377,42.4685397 38.5727869,42.4685397 C40.1056393,42.4685397 41.4382295,42.1792892 42.5691803,41.6 C43.0216393,41.3988251 43.4233443,41.2979421 43.7756721,41.2979421 C44.4289836,41.2979421 44.9821639,41.5751733 45.4344262,42.1288477 C45.811541,42.6070568 46,43.1234912 46,43.6769685 C46,44.0801065 45.8994754,44.4450193 45.6982295,44.772101 C45.4969836,45.0995767 45.2083934,45.3513902 44.8312787,45.5273444 C42.8707541,46.5091805 40.7843279,47 38.5727869,47 C36.1090492,47 33.8471475,46.4780486 31.7864918,45.4329636 C29.7252459,44.3884697 28.0786885,42.8462599 26.8476066,40.8071225 C25.6157377,38.7679851 25,36.300883 25,33.4056192 C25,30.8378311 25.584459,28.5342699 26.7531803,26.4951325 C27.9220984,24.455995 29.5365902,22.8639349 31.5978361,21.7183609 C33.6586885,20.572984 35.9837377,20 38.5727869,20 C40.8095082,20 42.8831475,20.4908195 44.7937049,21.4728527 C45.5725246,21.8757936 45.9622295,22.5175436 45.9622295,23.3986937" id="Fill-8" fill="#1D1D1B"></path>
                </g>
            </g>
        </g>
    </g>
</svg>